Coordinates
version=1
nRows=13
nColumns=36
inDegrees=yes

Units are S.I. units (second, meters, Newtons, ...)
Angles are in degrees.

endheader
time	pelvis_tilt	pelvis_list	pelvis_rotation	pelvis_tx	pelvis_ty	pelvis_tz	hip_flexion_r	hip_adduction_r	hip_rotation_r	knee_angle_r	ankle_angle_r	subtalar_angle_r	hip_flexion_l	hip_adduction_l	hip_rotation_l	knee_angle_l	ankle_angle_l	subtalar_angle_l	lumbar_extension	lumbar_bending	lumbar_rotation	arm_flex_r	arm_add_r	arm_rot_r	elbow_flex_r	pro_sup_r	wrist_flex_r	wrist_dev_r	arm_flex_l	arm_add_l	arm_rot_l	elbow_flex_l	pro_sup_l	wrist_flex_l	wrist_dev_l
      1.78000000	      0.25873523	      2.26164416	      1.60617305	     -0.10671927	      0.89788739	     -0.23771346	     27.67942579	     -1.33428050	     -9.23223753	    -16.89404254	      1.24822949	     -0.17809360	    -15.71759220	      3.83209892	      6.70715856	    -19.02002692	     13.57795867	      8.44519421	     -5.98786988	     -0.00022880	     -9.71271817	     -6.94795532	    -15.33150142	     15.96583988	      7.64986464	     86.51662706	      0.00000000	      0.00000000	      5.87625252	    -19.79662692	     14.85180356	     40.93097502	     86.51662706	      0.00000000	      0.00000000
      1.79000000	      0.16626164	      1.92344382	      1.49626156	     -0.09160378	      0.89662067	     -0.23596112	     27.65965662	     -0.78373017	     -8.91004211	    -18.11888683	     -0.27353761	     -1.82109011	    -15.66843694	      3.33148201	      6.09959765	    -20.55697139	     12.64120742	      9.19662172	     -5.58568848	      0.43699189	     -9.58157504	     -6.98166170	    -15.39137509	     16.55430386	      7.67938634	     86.51662706	      0.00000000	      0.00000000	      5.25572214	    -19.54518431	     14.57323549	     40.92079512	     86.51662706	      0.00000000	      0.00000000
      1.80000000	      0.05644673	      1.47621456	      1.34292799	     -0.07649846	      0.89569002	     -0.23407416	     27.67916336	     -0.12282003	     -8.57732987	    -19.28597323	     -1.90745449	     -3.27566953	    -15.44114493	      2.72035245	      5.37404090	    -22.29771486	     11.33225410	      9.93189179	     -5.15140951	      1.00171462	     -9.37968136	     -7.01143643	    -15.48229160	     17.05922462	      7.76619981	     86.51662706	      0.00000000	      0.00000000	      4.62279619	    -19.24214060	     14.34339098	     40.77915149	     86.51662706	      0.00000000	      0.00000000
      1.81000000	     -0.06181138	      0.91623442	      1.15488450	     -0.06148366	      0.89524044	     -0.23211462	     27.71659713	      0.64172012	     -8.21751763	    -20.45422675	     -3.48856184	     -4.49971544	    -15.02727647	      2.00053327	      4.56356885	    -24.25820274	      9.57827186	     10.61664551	     -4.71100884	      1.69180566	     -9.11718972	     -7.02267811	    -15.60276025	     17.46184249	      7.90592729	     86.51662706	      0.00000000	      0.00000000	      3.99379865	    -18.89063700	     14.16417319	     40.49743866	     86.51662706	      0.00000000	      0.00000000
      1.82000000	     -0.17711246	      0.25897107	      0.94369680	     -0.04654461	      0.89525086	     -0.23016653	     27.73852175	      1.49927846	     -7.81945047	    -21.66230735	     -4.84921184	     -5.48366499	    -14.42490881	      1.18550740	      3.71660753	    -26.44465844	      7.33889010	     11.22118911	     -4.28899080	      2.48634696	     -8.80974253	     -7.00321902	    -15.74910248	     17.74907233	      8.09583070	     86.51662706	      0.00000000	      0.00000000	      3.38129996	    -18.49926739	     14.03834094	     40.07272262	     86.51662706	      0.00000000	      0.00000000
      1.83000000	     -0.27467515	     -0.46400667	      0.71937743	     -0.03163150	      0.89555161	     -0.22825333	     27.71148409	      2.43254599	     -7.38692793	    -22.90063888	     -5.84903754	     -6.24212081	    -13.63967583	      0.29640843	      2.89346066	    -28.85077353	      4.62680468	     11.72232123	     -3.90743850	      3.34912815	     -8.47475581	     -6.94410720	    -15.91537161	     17.91439268	      8.33529402	     86.51662706	      0.00000000	      0.00000000	      2.79565727	    -18.08130297	     13.97081930	     39.50701344	     86.51662706	      0.00000000	      0.00000000
      1.84000000	     -0.34509144	     -1.21377664	      0.48997469	     -0.01680436	      0.89594593	     -0.22633538	     27.60207190	      3.41657649	     -6.93986494	    -24.11526152	     -6.39834487	     -6.80308776	    -12.68313457	     -0.64162721	      2.16012730	    -31.45796574	      1.52228470	     12.10278575	     -3.58574111	      4.23756756	     -8.12840994	     -6.83952488	    -16.09393304	     17.95834060	      8.62560025	     86.51662706	      0.00000000	      0.00000000	      2.24711301	    -17.65217639	     13.96979836	     38.80562351	     86.51662706	      0.00000000	      0.00000000
      1.85000000	     -0.38857842	     -1.95509103	      0.26603861	     -0.00223012	      0.89633786	     -0.22437904	     27.37615642	      4.42051780	     -6.50795797	    -25.23189411	     -6.47011012	     -7.19746515	    -11.56959874	     -1.59994948	      1.57928022	    -34.23880109	     -1.82383643	     12.34910682	     -3.33992524	      5.11315847	     -7.78430395	     -6.68640136	    -16.27672409	     17.88857414	      8.96908052	     86.51662706	      0.00000000	      0.00000000	      1.74735959	    -17.22595700	     14.04731410	     37.97511443	     86.51662706	      0.00000000	      0.00000000
      1.86000000	     -0.40864475	     -2.66507915	      0.06533612	      0.01196159	      0.89676001	     -0.22240406	     27.00400883	      5.40965939	     -6.12202103	    -26.18150583	     -6.09847476	     -7.45123786	    -10.31275899	     -2.54499489	      1.19980526	    -37.16150302	     -5.20216755	     12.44932208	     -3.18127602	      5.94862073	     -7.45369259	     -6.48411335	    -16.45680564	     17.71944111	      9.36788996	     86.51662706	      0.00000000	      0.00000000	      1.30977060	    -16.81230024	     14.21907503	     37.02146007	     86.51662706	      0.00000000	      0.00000000
      1.87000000	     -0.40454309	     -3.33378217	     -0.08723307	      0.02576211	      0.89730433	     -0.22047380	     26.46592388	      6.34741295	     -5.80829498	    -26.91720787	     -5.36512980	     -7.58180013	     -8.92344847	     -3.43893820	      1.04802385	    -40.19237533	     -8.37173501	     12.39224164	     -3.11485431	      6.72893219	     -7.14635965	     -6.23419339	    -16.62961639	     17.47098976	      9.82277219	     86.51662706	      0.00000000	      0.00000000	      0.94815475	    -16.41527139	     14.50341167	     35.94898813	     86.51662706	      0.00000000	      0.00000000
      1.88000000	     -0.37062499	     -3.95568952	     -0.16493308	      0.03924225	      0.89805190	     -0.21867313	     25.75452884	      7.19851949	     -5.58717847	    -27.41981703	     -4.37829128	     -7.59823585	     -7.41009166	     -4.24413836	      1.12401369	    -43.29447565	    -11.09759719	     12.16922440	     -3.13883905	      7.44678858	     -6.87098978	     -5.93978457	    -16.79344619	     17.16741278	     10.33216908	     86.51662706	      0.00000000	      0.00000000	      0.67450879	    -16.03443956	     14.91935925	     34.76043439	     86.51662706	      0.00000000	      0.00000000
      1.89000000	     -0.30115081	     -4.51997670	     -0.14660894	      0.05247303	      0.89905519	     -0.21710124	     24.87516862	      7.93299872	     -5.47424822	    -27.69364205	     -3.25045069	     -7.50422881	     -5.78161019	     -4.92849933	      1.40447754	    -46.42349737	    -13.19106917	     11.77819476	     -3.24511033	      8.09566728	     -6.63442124	     -5.60484599	    -16.94896149	     16.83502234	     10.89189298	     86.51662706	      0.00000000	      0.00000000	      0.49654532	    -15.66745790	     15.48404397	     33.45811767	     86.51662706	      0.00000000	      0.00000000
      1.90000000	     -0.19489192	     -5.00834534	     -0.02276793	      0.06548398	      0.90033717	     -0.21583894	     23.84500547	      8.52920411	     -5.48080789	    -27.75743338	     -2.08021618	     -7.30195588	     -4.04996193	     -5.46738636	      1.85063978	    -49.52351814	    -14.54271471	     11.22827323	     -3.42072436	      8.66444998	     -6.43999187	     -5.23344315	    -17.09802547	     16.49996784	     11.49538551	     86.51662706	      0.00000000	      0.00000000	      0.41568724	    -15.31280803	     16.20972494	     32.04592003	     86.51662706	      0.00000000	      0.00000000
